<svg width="20" height="21" viewBox="0 0 20 21" fill="none" xmlns="http://www.w3.org/2000/svg">
<path fill-rule="evenodd" clip-rule="evenodd" d="M9.9974 4.17383C10.3426 4.17383 10.6224 4.45365 10.6224 4.79883V10.0072H15.8307C16.1759 10.0072 16.4557 10.287 16.4557 10.6322C16.4557 10.9773 16.1759 11.2572 15.8307 11.2572H10.6224V16.4655C10.6224 16.8107 10.3426 17.0905 9.9974 17.0905C9.65222 17.0905 9.3724 16.8107 9.3724 16.4655V11.2572H4.16406C3.81888 11.2572 3.53906 10.9773 3.53906 10.6322C3.53906 10.287 3.81888 10.0072 4.16406 10.0072H9.3724V4.79883C9.3724 4.45365 9.65222 4.17383 9.9974 4.17383Z" fill="#8198AF"/>
</svg>
