<svg width="23" height="24" viewBox="0 0 23 24" fill="none" xmlns="http://www.w3.org/2000/svg">
<path fill-rule="evenodd" clip-rule="evenodd" d="M12.4609 2.75C16.8274 2.75 20.3672 6.44365 20.3672 11C20.3672 15.5563 16.8274 19.25 12.4609 19.25C10.2775 19.25 8.30191 18.3274 6.87037 16.8336C5.43884 15.3399 4.55469 13.2784 4.55469 11C4.55469 6.44365 8.09443 2.75 12.4609 2.75ZM21.8047 11C21.8047 5.61522 17.6213 1.25 12.4609 1.25C7.30053 1.25 3.11719 5.61522 3.11719 11C3.11719 13.4221 3.96437 15.639 5.36515 17.3436L2.36937 20.4697C2.08868 20.7626 2.08868 21.2374 2.36937 21.5303C2.65006 21.8232 3.10515 21.8232 3.38584 21.5303L6.38161 18.4043C8.01528 19.866 10.1397 20.75 12.4609 20.75C17.6213 20.75 21.8047 16.3848 21.8047 11Z" fill="#4D637C"/>
</svg>
